<svg width="48" height="53" viewBox="0 0 48 53" fill="none" xmlns="http://www.w3.org/2000/svg">
<path d="M41.3413 17.5304V18.3384C41.1799 18.3232 41.0165 18.3155 40.8514 18.3155C37.9724 18.3155 35.6159 20.672 35.6159 23.551V35.533C35.6159 35.537 35.6155 35.5394 35.6152 35.5407C35.615 35.5419 35.6147 35.5427 35.6145 35.5433C35.614 35.5444 35.6132 35.5456 35.612 35.5469C35.6115 35.5474 35.611 35.5478 35.6105 35.5482C35.6097 35.5487 35.609 35.5491 35.6084 35.5494C35.6078 35.5496 35.607 35.5499 35.6058 35.5501C35.6045 35.5504 35.6021 35.5508 35.5982 35.5508H11.8111C11.8071 35.5508 11.8047 35.5504 11.8035 35.5501C11.8022 35.5499 11.8014 35.5496 11.8009 35.5494C11.7998 35.5489 11.7985 35.5481 11.7973 35.5469C11.796 35.5456 11.7952 35.5444 11.7948 35.5433C11.7945 35.5427 11.7943 35.5419 11.794 35.5407C11.7938 35.5394 11.7934 35.537 11.7934 35.533V35.5153H12.8145H34.4767H35.5214V34.4706V27.1515V26.1068H34.4767H12.8145H11.7934V26.0713H12.8145H34.5357H35.5804V25.0266V23.551C35.5804 20.801 37.6917 18.5814 40.3575 18.3346L41.3059 18.2468V17.2943V7.61422C41.3059 5.90211 40.9075 4.579 40.2467 3.58289C40.9102 4.55445 41.3413 5.87941 41.3413 7.67325V17.5304ZM46.0869 23.551C46.0869 23.2913 46.0677 23.036 46.0307 22.7862C46.0794 23.0429 46.1104 23.3057 46.1223 23.5732V39.4287C46.1223 39.6767 46.1106 39.9235 46.0869 40.1675V39.4287V23.551ZM45.9649 40.4734H46.0506C45.908 41.489 45.55 42.4417 44.9516 43.2021C44.2815 44.0536 43.2538 44.7374 41.6994 44.9761C43.1716 44.7361 44.2422 44.0809 44.9548 43.1333C45.571 42.314 45.8531 41.3618 45.9649 40.4734ZM40.3792 45.0774C40.4208 45.0774 40.4622 45.0771 40.5033 45.0766L39.9247 45.1066V46.0985V50.1122C39.9247 50.2726 39.891 50.424 39.8302 50.56V50.1122V46.0985V45.0774H40.3792ZM38.7855 51.157H39.124C39.035 51.1801 38.9414 51.1924 38.8445 51.1924H36.6606C36.5637 51.1924 36.4701 51.1801 36.3812 51.157H36.6016H38.7855ZM11.8288 45.0774V46.0985V50.1122C11.8288 50.2091 11.8165 50.3027 11.7934 50.3917V50.1122V46.0985V45.0774H11.8288ZM6.97104 45.0774H7.51997V46.0985V50.1122V50.3917C7.49684 50.3027 7.48455 50.2091 7.48455 50.1122V46.0985V45.1123L6.86963 45.0768C6.90368 45.0772 6.93748 45.0774 6.97104 45.0774ZM8.56471 51.1924C8.46782 51.1924 8.37419 51.1801 8.28529 51.157H8.56471H10.7486H11.0281C10.9392 51.1801 10.8455 51.1924 10.7486 51.1924H8.56471ZM1.32234 39.4287C1.32234 41.0199 1.71655 42.248 2.4041 43.149C1.7403 42.3109 1.28693 41.1174 1.28693 39.4287V23.61C1.28693 22.4396 1.66542 21.3681 2.30805 20.5029C1.68833 21.363 1.32234 22.4164 1.32234 23.551V39.4287ZM5.9648 18.3491L6.00893 18.3376V17.5304V7.67325C6.00893 5.10652 6.89142 3.49977 8.07477 2.51465C8.16305 2.44116 8.25366 2.37059 8.34644 2.30291C6.97512 3.33711 6.04434 5.05545 6.04434 7.67325V17.2943V18.2468L6.92307 18.3282C6.80238 18.3197 6.68059 18.3155 6.55786 18.3155C6.35744 18.3155 6.15954 18.3269 5.9648 18.3491Z" stroke="url(#paint0_linear_17_223)" stroke-width="2.08948"/>
<defs>
<linearGradient id="paint0_linear_17_223" x1="2.3947" y1="-11.3559" x2="51.4973" y2="-8.40258" gradientUnits="userSpaceOnUse">
<stop stop-color="#8A32A7"/>
<stop offset="1" stop-color="#3B90FB"/>
</linearGradient>
</defs>
</svg>
