<svg width="32" height="32" viewBox="0 0 32 32" fill="none" xmlns="http://www.w3.org/2000/svg">
<path fill-rule="evenodd" clip-rule="evenodd" d="M6.05317 2.66663H10.5598C12.4398 2.66663 13.9465 4.19996 13.9465 6.08129V10.6266C13.9465 12.52 12.4398 14.04 10.5598 14.04H6.05317C4.1865 14.04 2.6665 12.52 2.6665 10.6266V6.08129C2.6665 4.19996 4.1865 2.66663 6.05317 2.66663ZM6.05317 17.9596H10.5598C12.4398 17.9596 13.9465 19.4809 13.9465 21.3742V25.9196C13.9465 27.7996 12.4398 29.3329 10.5598 29.3329H6.05317C4.1865 29.3329 2.6665 27.7996 2.6665 25.9196V21.3742C2.6665 19.4809 4.1865 17.9596 6.05317 17.9596ZM25.9466 2.66663H21.44C19.56 2.66663 18.0533 4.19996 18.0533 6.08129V10.6266C18.0533 12.52 19.56 14.04 21.44 14.04H25.9466C27.8133 14.04 29.3333 12.52 29.3333 10.6266V6.08129C29.3333 4.19996 27.8133 2.66663 25.9466 2.66663ZM21.44 17.9596H25.9466C27.8133 17.9596 29.3333 19.4809 29.3333 21.3742V25.9196C29.3333 27.7996 27.8133 29.3329 25.9466 29.3329H21.44C19.56 29.3329 18.0533 27.7996 18.0533 25.9196V21.3742C18.0533 19.4809 19.56 17.9596 21.44 17.9596Z" fill="#023AFF"/>
</svg>
