<svg width="51" height="53" viewBox="0 0 51 53" fill="none" xmlns="http://www.w3.org/2000/svg">
<path d="M49.6074 19.3516V19.5234L49.6623 19.6861C49.6799 19.7379 49.6799 19.7938 49.6623 19.8457L49.6074 20.0084V20.1801V46.4963C49.6044 49.0885 47.5035 51.1894 44.9113 51.1924H6.3205C3.72894 51.1894 1.62815 49.0889 1.62482 46.4969V11.2945C1.62815 8.70267 3.72872 6.60225 6.32011 6.59903C6.32024 6.59903 6.32037 6.59903 6.3205 6.59903L7.83101 6.59903H8.87575V5.55428V4.65108C8.88797 2.6556 10.5085 1.04474 12.5036 1.04474C14.499 1.04474 16.1195 2.65572 16.1311 4.65076V5.55428V6.59903H17.1758H34.0563H35.1011V5.55428V4.65108C35.1133 2.6556 36.7338 1.04474 38.729 1.04474C40.7242 1.04474 42.3448 2.65563 42.3564 4.6506V5.55428V6.59903H43.4012L44.9113 6.59903C44.9114 6.59903 44.9115 6.59903 44.9117 6.59903C47.5037 6.60225 49.6044 8.70303 49.6074 11.2951V19.3516ZM38.7305 1.54379L38.7278 1.54379C37.0146 1.54564 35.6261 2.93319 35.6243 4.64695V4.64807L35.6242 7.39985L35.6243 7.40816C35.6379 9.11248 37.0237 10.4869 38.7281 10.4869C40.4325 10.4869 41.8194 9.11288 41.8324 7.40779L41.8324 7.40779V7.39985V4.64807V4.64694C41.8306 2.93339 40.4428 1.54626 38.7305 1.54379ZM9.39897 4.63976L9.39894 4.63976V4.64807V7.39985H9.3989L9.39897 7.40817C9.41254 9.11248 10.7984 10.4869 12.5028 10.4869C14.2078 10.4869 15.5929 9.11236 15.6071 7.40855H15.6071V7.39985V4.64807H15.6071L15.6071 4.63938C15.5929 2.93501 14.2081 1.56016 12.5028 1.56016C10.7981 1.56016 9.41254 2.93489 9.39897 4.63976ZM6.31929 7.12262L6.31805 7.12263C4.01679 7.12535 2.1506 8.99095 2.14842 11.2933V11.2943V18.4589V19.5037H3.19316H48.039H49.0838V18.4589V11.2939V11.2927C49.081 8.99054 47.2159 7.12535 44.9137 7.12263H44.9125H43.3369H42.4518L42.3064 7.99573C42.0151 9.74452 40.502 11.0265 38.729 11.0265C36.956 11.0265 35.4427 9.74453 35.1511 7.99555L35.0056 7.12263H34.1206H17.1112H16.2262L16.0807 7.99555C15.7891 9.74459 14.2761 11.0265 12.5028 11.0265C10.7299 11.0265 9.21697 9.74464 8.92535 7.99555L8.77981 7.12263H7.89483L6.31929 7.12262ZM44.9125 50.6688H44.9137C47.2159 50.666 49.081 48.8009 49.0838 46.4987V46.4975V21.072V20.0273H48.039H3.19316H2.14842V21.072L2.14842 46.4975L2.14842 46.4987C2.15115 48.8009 4.01674 50.666 6.31805 50.6688H6.31929H44.9125Z" stroke="url(#paint0_linear_17_191)" stroke-width="2.08948"/>
<path d="M27.9438 32.5223L28.1893 33.0098L28.7296 33.0868L32.5298 33.6283V33.6291L33.4277 33.7566C33.5261 33.7706 33.6091 33.8401 33.64 33.9362L33.6401 33.9364C33.6705 34.0311 33.6439 34.1358 33.572 34.2045L33.5716 34.2048L30.1882 37.4382L29.7847 37.8237L29.8808 38.3735L30.6781 42.9308C30.6781 42.931 30.6781 42.9311 30.6782 42.9313C30.695 43.0288 30.6549 43.128 30.5754 43.1865L30.5742 43.1873C30.4949 43.2457 30.3886 43.2543 30.3007 43.209L26.0936 41.041L25.6151 40.7944L25.1365 41.041L20.9298 43.2088C20.8406 43.2547 20.734 43.2458 20.6546 43.1874L20.6537 43.1867C20.5743 43.1284 20.5342 43.0298 20.5515 42.9311L20.5515 42.9311L21.3485 38.373L21.4446 37.8233L21.0412 37.4378L17.6581 34.2045L17.6578 34.2041C17.5858 34.1354 17.5588 34.031 17.5894 33.935C17.6203 33.8396 17.7028 33.7702 17.8016 33.7562L17.8021 33.7561L22.4989 33.0868L23.0391 33.0098L23.2846 32.5224L25.3809 28.3596L25.3812 28.359C25.4256 28.2706 25.5158 28.2152 25.6142 28.2152C25.7138 28.2152 25.8038 28.2709 25.8481 28.359L25.8483 28.3594L27.9438 32.5223ZM29.321 37.541L29.3212 37.5408L31.2642 35.685L32.8204 34.1985L30.6898 33.8952L27.9802 33.5094L27.98 33.5093C27.8962 33.4974 27.8224 33.4448 27.7837 33.3679L26.5473 30.9132L25.6139 29.06L24.681 30.9135L23.4456 33.3679C23.407 33.4447 23.3333 33.4973 23.2491 33.5093L23.2487 33.5094L20.5394 33.8952L18.4092 34.1985L19.965 35.6849L21.9076 37.5407L21.9079 37.541C21.971 37.6012 21.9995 37.6888 21.9845 37.7737L21.9843 37.775L21.5203 40.429L21.1581 42.5013L23.0281 41.5376L25.4942 40.2667C25.5705 40.2275 25.6599 40.2279 25.7343 40.2663L25.7346 40.2665L28.2012 41.5376L30.0716 42.5015L29.7089 40.4289L29.2446 37.7749L29.2445 37.7746C29.2294 37.6883 29.2584 37.6007 29.321 37.541Z" stroke="url(#paint1_linear_17_191)" stroke-width="2.08948"/>
<defs>
<linearGradient id="paint0_linear_17_191" x1="2.88009" y1="-11.3559" x2="55.3204" y2="-7.98571" gradientUnits="userSpaceOnUse">
<stop stop-color="#8A32A7"/>
<stop offset="1" stop-color="#3B90FB"/>
</linearGradient>
<linearGradient id="paint1_linear_17_191" x1="17.3655" y1="23.4503" x2="36.3464" y2="24.7994" gradientUnits="userSpaceOnUse">
<stop stop-color="#8A32A7"/>
<stop offset="1" stop-color="#3B90FB"/>
</linearGradient>
</defs>
</svg>
