<svg width="107" height="21" viewBox="0 0 107 21" fill="none" xmlns="http://www.w3.org/2000/svg">
<path d="M0 16.9421V20.9987C3.66014 20.9299 6.60375 18.2355 6.60375 14.9217V6.87745C6.60375 4.96095 7.97223 4.05386 8.85094 4.05386C9.72964 4.05386 11.0981 4.96095 11.0981 6.87745V14.1225C11.0981 17.5638 13.7566 21 17.8453 21C21.9341 21 24.5925 17.5638 24.5925 14.1225V6.87745C24.5925 4.96095 25.961 4.05386 26.8397 4.05386C27.7184 4.05386 29.0869 4.96095 29.0869 6.87745V14.1225C29.0869 17.5638 31.7453 21 35.8341 21C39.9228 21 42.5812 17.5638 42.5812 14.1225V6.87745C42.5812 4.96095 43.9497 4.05386 44.8284 4.05386C45.7071 4.05386 47.0756 4.96095 47.0756 6.87745V14.1225C47.0756 17.5638 49.7341 21 53.8228 21C53.8822 21 53.9412 20.9993 54 20.9978V16.9346C53.9392 16.9423 53.88 16.9461 53.8228 16.9461C52.9441 16.9461 51.5756 16.0391 51.5756 14.1225V6.87745C51.5756 3.43621 48.9172 0 44.8284 0C40.7397 0 38.0812 3.43622 38.0812 6.87745V14.1225C38.0812 16.0391 36.7128 16.9461 35.8341 16.9461C34.9554 16.9461 33.5869 16.0391 33.5869 14.1225V6.87745C33.5869 3.43622 30.9284 0 26.8397 0C22.7509 0 20.0925 3.43622 20.0925 6.87745V14.1225C20.0925 16.0391 18.724 16.9461 17.8453 16.9461C16.9666 16.9461 15.5981 16.039 15.5981 14.1225V6.87745C15.5981 3.43622 12.9397 0 8.85094 0C4.76219 0 2.10375 3.43622 2.10375 6.87745V14.9217C2.10375 15.9964 1.17425 16.8755 0 16.9421Z" fill="#F59C33"/>
<path d="M54 16.9421V20.9987C57.5924 20.9299 60.4815 18.2355 60.4815 14.9217V6.87745C60.4815 4.96095 61.8246 4.05386 62.687 4.05386C63.5495 4.05386 64.8926 4.96095 64.8926 6.87745V14.1225C64.8926 17.5638 67.5018 21 71.5148 21C75.5279 21 78.1371 17.5638 78.1371 14.1225V6.87745C78.1371 4.96095 79.4802 4.05386 80.3427 4.05386C81.2051 4.05386 82.5482 4.96095 82.5482 6.87745V14.1225C82.5482 17.5638 85.1574 21 89.1705 21C93.1835 21 95.7927 17.5638 95.7927 14.1225V6.87745C95.7927 4.96095 97.1358 4.05386 97.9983 4.05386C98.8607 4.05386 100.204 4.96095 100.204 6.87745V14.1225C100.204 17.5638 102.813 21 106.826 21C106.884 21 106.942 20.9993 107 20.9978V16.9346C106.94 16.9423 106.882 16.9461 106.826 16.9461C105.964 16.9461 104.621 16.0391 104.621 14.1225V6.87745C104.621 3.43621 102.011 0 97.9983 0C93.9852 0 91.376 3.43622 91.376 6.87745V14.1225C91.376 16.0391 90.0329 16.9461 89.1705 16.9461C88.308 16.9461 86.9649 16.0391 86.9649 14.1225V6.87745C86.9649 3.43622 84.3557 0 80.3427 0C76.3296 0 73.7204 3.43622 73.7204 6.87745V14.1225C73.7204 16.0391 72.3773 16.9461 71.5148 16.9461C70.6524 16.9461 69.3093 16.039 69.3093 14.1225V6.87745C69.3093 3.43622 66.7001 0 62.687 0C58.674 0 56.0648 3.43622 56.0648 6.87745V14.9217C56.0648 15.9964 55.1525 16.8755 54 16.9421Z" fill="#F59C33"/>
</svg>
