<svg width="53" height="53" viewBox="0 0 53 53" fill="none" xmlns="http://www.w3.org/2000/svg">
<path d="M30.2352 1.34994C30.8178 1.44094 31.3967 1.55251 31.971 1.68439L31.6975 2.25852C31.226 1.91149 30.7381 1.60703 30.2352 1.34994ZM20.7378 1.68473C21.3118 1.5529 21.8903 1.44136 22.4725 1.35035C21.97 1.60734 21.4824 1.91164 21.0111 2.25846L20.7378 1.68473ZM22.4731 50.8891C21.8907 50.7981 21.3119 50.6865 20.7377 50.5547L21.0111 49.9807C21.4825 50.3276 21.9703 50.632 22.4731 50.8891ZM31.971 50.5548C31.3967 50.6866 30.8177 50.7982 30.2352 50.8892C30.7381 50.6321 31.226 50.3277 31.6975 49.9806L31.971 50.5548Z" stroke="url(#paint0_linear_17_218)" stroke-width="2.08948"/>
<defs>
<linearGradient id="paint0_linear_17_218" x1="2.63126" y1="-11.3559" x2="57.2473" y2="-7.69896" gradientUnits="userSpaceOnUse">
<stop stop-color="#8A32A7"/>
<stop offset="1" stop-color="#3B90FB"/>
</linearGradient>
</defs>
</svg>
