<svg width="64" height="53" viewBox="0 0 64 53" fill="none" xmlns="http://www.w3.org/2000/svg">
<path d="M34.8283 48.1427C34.8283 49.8271 33.4629 51.1925 31.7785 51.1925C30.0941 51.1925 28.7286 49.8271 28.7286 48.1427C28.7286 46.4583 30.0941 45.0928 31.7785 45.0928C33.4629 45.0928 34.8283 46.4583 34.8283 48.1427Z" stroke="url(#paint0_linear_17_202)" stroke-width="2.08948"/>
<path d="M3.67063 16.2413L3.67067 16.2413C11.0734 8.29865 21.1042 3.91853 31.9026 3.9184C42.7002 3.91853 52.7309 8.29866 60.1337 16.2413C60.4167 16.545 60.7986 16.6985 61.1853 16.6985C61.5371 16.6985 61.887 16.5712 62.1643 16.3129L3.67063 16.2413ZM3.67063 16.2413C3.12972 16.8217 2.22063 16.8538 1.63992 16.3128L3.67063 16.2413ZM63.0002 13.5697L62.2359 14.2821C54.2766 5.74238 43.509 1.04486 31.9017 1.04474C20.2955 1.04486 9.52786 5.74235 1.56844 14.282C1.0275 14.8625 1.05945 15.7717 1.63983 16.3127L63.0002 13.5697ZM63.0002 13.5697L62.2359 14.2821C62.7768 14.8624 62.745 15.7714 62.1645 16.3127L63.0002 13.5697Z" stroke="url(#paint1_linear_17_202)" stroke-width="2.08948"/>
<path d="M31.903 15.4437C39.7589 15.4434 47.3043 18.6663 53.1477 24.5538C53.7066 25.117 53.7033 26.0266 53.1403 26.5856C52.8596 26.8641 52.4951 27.0028 52.1278 27.0028C51.7566 27.0028 51.389 26.8614 51.1079 26.5781C45.8351 21.2655 39.0161 18.3171 31.903 18.3173C24.7882 18.3175 17.9691 21.2657 12.6981 26.578L13.4306 27.3049L12.6981 26.578C12.1392 27.1413 11.2295 27.1449 10.6661 26.5859C10.1028 26.027 10.0993 25.1173 10.6582 24.554C16.4997 18.6668 24.0452 15.4438 31.903 15.4437Z" stroke="url(#paint2_linear_17_202)" stroke-width="2.08948"/>
<path d="M43.222 34.8381L43.222 34.8381C40.1726 31.8169 35.8032 29.9551 31.8796 29.9551H31.8796H31.8796H31.8796H31.8796H31.8796H31.8796H31.8796H31.8795H31.8795H31.8795H31.8795H31.8795H31.8795H31.8795H31.8795H31.8795H31.8795H31.8795H31.8794H31.8794H31.8794H31.8794H31.8794H31.8794H31.8794H31.8794H31.8794H31.8794H31.8793H31.8793H31.8793H31.8793H31.8793H31.8793H31.8793H31.8793H31.8793H31.8793H31.8793H31.8792H31.8792H31.8792H31.8792H31.8792H31.8792H31.8792H31.8792H31.8792H31.8792H31.8792H31.8792H31.8791H31.8791H31.8791H31.8791H31.8791H31.8791H31.8791H31.8791H31.8791H31.8791H31.8791H31.8791H31.8791H31.879H31.879H31.879H31.879H31.879H31.879H31.879H31.879H31.879H31.879H31.879H31.879H31.879H31.8789H31.8789H31.8789H31.8789H31.8789H31.8789H31.8789H31.8789H31.8789H31.8789H31.8789H31.8789H31.8788H31.8788H31.8788H31.8788H31.8788H31.8788H31.8788H31.8788H31.8788H31.8788H31.8788H31.8788H31.8788H31.8787H31.8787H31.8787H31.8787H31.8787H31.8787H31.8787H31.8787H31.8787H31.8787H31.8787H31.8787H31.8786H31.8786H31.8786H31.8786H31.8786H31.8786H31.8786H31.8786H31.8786H31.8786H31.8786H31.8786H31.8786H31.8785H31.8785H31.8785H31.8785H31.8785H31.8785H31.8785H31.8785H31.8785H31.8785H31.8785H31.8785H31.8785H31.8784H31.8784H31.8784H31.8784H31.8784H31.8784H31.8784H31.8784H31.8784H31.8784H31.8784H31.8784H31.8783H31.8783H31.8783H31.8783H31.8783H31.8783H31.8783H31.8783H31.8783H31.8783H31.8783H31.8783H31.8783H31.8782H31.8782H31.8782H31.8782H31.8782H31.8782H31.8782H31.8782H31.8782H31.8782H31.8782H31.8782H31.8781H31.8781H31.8781H31.8781H31.8781H31.8781H31.8781H31.8781H31.8781H31.8781H31.8781H31.878H31.878H31.878H31.878H31.878H31.878H31.878H31.878H31.878H31.878H31.878H31.8779H31.8779H31.8779H31.8779H31.8779H31.8779H31.8779H31.8779H31.8779H31.8779H31.8778H31.8778H31.8778H31.8778H31.8778H31.8778H31.8778H31.8778H31.8778H31.8778H31.699H31.699H31.6989H31.6989H31.6989H31.6989H31.6989H31.6989H31.6989H31.6989H31.6989H31.6989H31.6989H31.6989H31.6988H31.6988H31.6988H31.6988H31.6988H31.6988H31.6988H31.6988H31.6988H31.6988H31.6988H31.6988H31.6987H31.6987H31.6987H31.6987H31.6987H31.6987H31.6987H31.6987H31.6987H31.6987H31.6987H31.6987H31.6986H31.6986H31.6986H31.6986H31.6986H31.6986H31.6986H31.6986H31.6986H31.6986H31.6986H31.6986H31.6986H31.6985H31.6985H31.6985H31.6985H31.6985H31.6985H31.6985H31.6985H31.6985H31.6985H31.6984H31.6984H31.6984H31.6984H31.6984H31.6984H31.6984H31.6984H31.6984H31.6984H31.6984H31.6983H31.6983H31.6983H31.6983H31.6983H31.6983H31.6983H31.6983H31.6983H31.6983H31.6982H31.6982H31.6982H31.6982H31.6982H31.6982H31.6982H31.6982H31.6982H31.6982H31.6981H31.6981H31.6981H31.6981H31.6981H31.6981H31.6981H31.6981H31.6981H31.6981H31.698H31.698H31.698H31.698H31.698H31.698H31.698H31.698H31.698H31.698H31.6979H31.6979H31.6979H31.6979H31.6979H31.6979H31.6979H31.6979H31.6979H31.6979H31.6978H31.6978H31.6978H31.6978H31.6978H31.6978H31.6978H31.6978H31.6978H31.6978H31.6977H31.6977H31.6977H31.6977H31.6977H31.6977H31.6977H31.6977H31.6977H31.6977H31.6976H31.6976H31.6976H31.6976H31.6976H31.6976H31.6976H31.6976H31.6976H31.6976H31.6975H31.6975H31.6975H31.6975H31.6975H31.6975H31.6975H31.6975H31.6975H31.6975H31.6975H31.6975H31.6974H31.6974H31.6974H31.6974H31.6974H31.6974H31.6974H31.6974H31.6974H31.6974H31.6974H31.6974H31.6974H31.6973H31.6973H31.6973H31.6973H31.6973H31.6973H31.6973H31.6973H31.6973H31.6973H31.6973H31.6973H31.6972H31.6972H31.6972H31.6972H31.6972H31.6972H31.6972H31.6972H31.6972H31.6972H31.6972H31.6972H31.6971H31.6971H31.6971H31.6971H31.6971H31.6971C27.7734 29.9551 23.4037 31.817 20.3544 34.838L43.222 34.8381ZM43.222 34.8381C43.7858 35.3966 43.79 36.3064 43.2315 36.87L43.2312 36.8702M43.222 34.8381L43.2312 36.8702M43.2312 36.8702C42.6731 37.4338 41.7633 37.4381 41.1995 36.8796C38.7291 34.4319 35.1028 32.8288 31.8793 32.8288H31.8792H31.8792H31.8792H31.8792H31.8792H31.8792H31.8792H31.8792H31.8792H31.8792H31.8792H31.8792H31.8791H31.8791H31.8791H31.8791H31.8791H31.8791H31.8791H31.8791H31.8791H31.8791H31.8791H31.8791H31.879H31.879H31.879H31.879H31.879H31.879H31.879H31.879H31.879H31.879H31.879H31.8789H31.8789H31.8789H31.8789H31.8789H31.8789H31.8789H31.8789H31.8789H31.8789H31.8789H31.8789H31.8788H31.8788H31.8788H31.8788H31.8788H31.8788H31.8788H31.8788H31.8788H31.8788H31.8788H31.8788H31.8788H31.8787H31.8787H31.8787H31.8787H31.8787H31.8787H31.8787H31.8787H31.8787H31.8787H31.8787H31.8787H31.8787H31.8786H31.8786H31.8786H31.8786H31.8786H31.8786H31.8786H31.8786H31.8786H31.8786H31.8786H31.8786H31.8786H31.8785H31.8785H31.8785H31.8785H31.8785H31.8785H31.8785H31.8785H31.8785H31.8785H31.8785H31.8785H31.8784H31.8784H31.8784H31.8784H31.8784H31.8784H31.8784H31.8784H31.8784H31.8784H31.8784H31.8784H31.8783H31.8783H31.8783H31.8783H31.8783H31.8783H31.8783H31.8783H31.8783H31.8783H31.8783H31.8782H31.8782H31.8782H31.8782H31.8782H31.8782H31.8782H31.8782H31.8782H31.8782H31.8782H31.8782H31.8781H31.8781H31.6986H31.6986H31.6986H31.6986H31.6986H31.6985H31.6985H31.6985H31.6985H31.6985H31.6985H31.6985H31.6985H31.6985H31.6985H31.6985H31.6985H31.6984H31.6984H31.6984H31.6984H31.6984H31.6984H31.6984H31.6984H31.6984H31.6984H31.6984H31.6983H31.6983H31.6983H31.6983H31.6983H31.6983H31.6983H31.6983H31.6983H31.6983H31.6983H31.6982H31.6982H31.6982H31.6982H31.6982H31.6982H31.6982H31.6982H31.6982H31.6982H31.6982H31.6982H31.6982H31.6981H31.6981H31.6981H31.6981H31.6981H31.6981H31.6981H31.6981H31.6981H31.6981H31.6981H31.6981H31.6981H31.698H31.698H31.698H31.698H31.698H31.698H31.698H31.698H31.698H31.698H31.698H31.698H31.698H31.6979H31.6979H31.6979H31.6979H31.6979H31.6979H31.6979H31.6979H31.6979H31.6979H31.6979H31.6979H31.6979H31.6978H31.6978H31.6978H31.6978H31.6978H31.6978H31.6978H31.6978H31.6978H31.6978H31.6978H31.6978H31.6978H31.6977H31.6977H31.6977H31.6977H31.6977H31.6977H31.6977H31.6977H31.6977H31.6977H31.6977H31.6977H31.6976H31.6976H31.6976H31.6976H31.6976H31.6976H31.6976H31.6976H31.6976H31.6976H31.6976H31.6975H31.6975H31.6975H31.6975H31.6975H31.6975H31.6975H31.6975H31.6975H31.6975H31.6975H31.6974H31.6974H31.6974H31.6974H31.6974H31.6974H31.6974H31.6974H31.6974H31.6974H31.6974C28.4734 32.8288 24.8474 34.4317 22.3768 36.8796C22.0965 37.1573 21.7327 37.2956 21.3657 37.2956C20.9943 37.2956 20.6262 37.1538 20.345 36.87L43.2312 36.8702ZM20.3449 36.87C19.7865 36.3062 19.7907 35.3965 20.3543 34.8381L20.3449 36.87Z" stroke="url(#paint3_linear_17_202)" stroke-width="2.08948"/>
<defs>
<linearGradient id="paint0_linear_17_202" x1="28.0595" y1="42.2678" x2="36.6214" y2="42.8411" gradientUnits="userSpaceOnUse">
<stop stop-color="#8A32A7"/>
<stop offset="1" stop-color="#3B90FB"/>
</linearGradient>
<linearGradient id="paint1_linear_17_202" x1="3.05215" y1="-3.85723" x2="66.1435" y2="11.2674" gradientUnits="userSpaceOnUse">
<stop stop-color="#8A32A7"/>
<stop offset="1" stop-color="#3B90FB"/>
</linearGradient>
<linearGradient id="paint2_linear_17_202" x1="11.2798" y1="11.4318" x2="56.717" y2="21.5542" gradientUnits="userSpaceOnUse">
<stop stop-color="#8A32A7"/>
<stop offset="1" stop-color="#3B90FB"/>
</linearGradient>
<linearGradient id="paint3_linear_17_202" x1="20.068" y1="26.8604" x2="46.2911" y2="31.6656" gradientUnits="userSpaceOnUse">
<stop stop-color="#8A32A7"/>
<stop offset="1" stop-color="#3B90FB"/>
</linearGradient>
</defs>
</svg>
